<?xml version="1.0" encoding="utf-8" standalone="no"?>
<!DOCTYPE svg PUBLIC "-//W3C//DTD SVG 1.1//EN" "http://www.w3.org/Graphics/SVG/1.1/DTD/svg11.dtd">
<svg version="1.1" width="720pt" height="480pt" viewBox="0 0 720 480" overflow="visible" xmlns="http://www.w3.org/2000/svg">
  <path d="M8.506287,309.2936 C7.218786,322.5079 10.3182,337.5762 17.62833,350.2076 C24.93846,362.8391 36.45932,373.0336 48.55824,378.5008 C60.53128,384.2384 75.74935,386.4901 90.12098,383.9509 C104.4926,381.4117 118.0178,374.0816 127.2999,364.5887 L297.4276,194.4609 C300.2268,191.5088 304.9912,189.3544 309.7557,189.3544 C314.5202,189.3544 319.2846,191.5088 322.0838,194.4609 L359.0681,231.4452 C364.6664,237.3493 374.1954,241.6581 383.7243,241.6581 C393.2532,241.6581 402.7822,237.3493 408.3805,231.4452 C414.2846,225.8468 418.5934,216.3179 418.5934,206.789 C418.5934,197.26 414.2846,187.7311 408.3805,182.1328 L359.0681,132.8204 C347.8715,121.0122 328.8136,112.3945 309.7557,112.3945 C290.6978,112.3945 271.64,121.0122 260.4433,132.8204 L108.0072,285.2565 C103.5842,290.0903 94.94331,291.8091 89.00719,289.0358 C82.84875,286.7993 77.95407,279.4739 78.24454,272.9284 L78.24454,100.0789 C78.46077,91.94542 74.76958,82.16065 68.03162,75.42268 C61.29364,68.68471 51.50887,64.99352 43.37542,65.20975 C35.24196,64.99352 25.45719,68.68471 18.71922,75.42268 C11.98124,82.16065 8.290062,91.94542 8.506287,100.0789 L8.506287,321.2589" stroke="#FF5B00" stroke-width="0.24" fill="none" />
  <path d="M596.819,210.6689 C585.6223,198.8606 566.5645,190.243 547.5066,190.243 C528.4487,190.243 509.3908,198.8606 498.1942,210.6689 L405.9149,302.9482 C403.1157,305.9002 398.3513,308.0546 393.5868,308.0546 C388.8223,308.0546 384.0579,305.9002 381.2587,302.9482 L344.2744,265.9639 C338.6761,260.0598 329.1471,255.7509 319.6182,255.7509 C310.0893,255.7509 300.5603,260.0597 294.962,265.9639 C289.0579,271.5622 284.7491,281.0911 284.7491,290.6201 C284.7491,300.149 289.0579,309.6779 294.962,315.2762 L344.2744,364.5887 C355.471,376.3969 374.5289,385.0145 393.5868,385.0145 C412.6447,385.0145 431.7025,376.3969 442.8992,364.5887 L535.1785,272.3094 C537.9777,269.3573 542.7421,267.2029 547.5066,267.2029 C552.2711,267.2029 557.0355,269.3573 559.8347,272.3094 L652.114,364.5887 C658.3368,370.98 667.8505,374.9208 676.7701,374.8016 C685.6898,374.9208 695.2036,370.98 701.4263,364.5887 C707.8177,358.3658 711.7585,348.8521 711.6393,339.9324 C711.7585,331.0128 707.8177,321.4991 701.4263,315.2762 z" stroke="#696969" stroke-width="0.24" fill="none" />
  <path d="M8.506287,321.2589 L8.506287,100.0789 C8.290062,91.94542 11.98124,82.16065 18.71922,75.42268 C25.45719,68.68471 35.24196,64.99352 43.37542,65.20975 C51.50887,64.99352 61.29364,68.68471 68.03162,75.42268 C74.76958,82.16065 78.46077,91.94542 78.24454,100.0789 L78.24454,272.9284 C77.95407,279.4739 82.84875,286.7993 89.00719,289.0358 C94.94331,291.8091 103.5842,290.0903 108.0072,285.2565 L260.4433,132.8204 C271.64,121.0122 290.6978,112.3945 309.7557,112.3945 C328.8136,112.3945 347.8715,121.0122 359.0681,132.8204 L408.3805,182.1328 C414.2846,187.7311 418.5934,197.26 418.5934,206.789 C418.5934,216.3179 414.2846,225.8468 408.3805,231.4452 C402.7822,237.3493 393.2532,241.6581 383.7243,241.6581 C374.1954,241.6581 364.6664,237.3493 359.0681,231.4452 L322.0838,194.4609 C319.2846,191.5088 314.5202,189.3544 309.7557,189.3544 C304.9912,189.3544 300.2268,191.5088 297.4276,194.4609 L127.2999,364.5887 C118.0178,374.0816 104.4926,381.4117 90.12098,383.9509 C75.74935,386.4901 60.53128,384.2384 48.55824,378.5008 C38.24339,373.7798 28.29646,365.7739 21.09629,355.6101 C13.89614,345.4464 9.442755,333.1248 8.506287,321.2589 z" stroke="Black" stroke-width="0" fill="#FF5B00" fill-opacity="1" />
  <path d="M596.819,210.6689 L701.4263,315.2762 C707.8177,321.4991 711.7585,331.0128 711.6393,339.9324 C711.7585,348.8521 707.8177,358.3658 701.4263,364.5887 C695.2036,370.98 685.6898,374.9208 676.7701,374.8016 C667.8505,374.9208 658.3368,370.98 652.114,364.5887 L559.8347,272.3094 C557.0355,269.3573 552.2711,267.2029 547.5066,267.2029 C542.7421,267.2029 537.9777,269.3573 535.1785,272.3094 L442.8992,364.5887 C431.7025,376.3969 412.6447,385.0145 393.5868,385.0145 C374.5289,385.0145 355.471,376.3969 344.2744,364.5887 L294.962,315.2762 C289.0579,309.6779 284.7491,300.149 284.7491,290.6201 C284.7491,281.0911 289.0579,271.5622 294.962,265.9639 C300.5603,260.0597 310.0893,255.7509 319.6182,255.7509 C329.1471,255.7509 338.6761,260.0598 344.2744,265.9639 L381.2587,302.9482 C384.0579,305.9002 388.8223,308.0546 393.5868,308.0546 C398.3513,308.0546 403.1157,305.9002 405.9149,302.9482 L498.1942,210.6689 C509.3908,198.8606 528.4487,190.243 547.5066,190.243 C566.5645,190.243 585.6223,198.8606 596.819,210.6689 z" stroke="Black" stroke-width="0" fill="#696969" fill-opacity="1" />
</svg>