<svg width="100" height="46" viewBox="0 0 100 46" fill="none" xmlns="http://www.w3.org/2000/svg">
<path d="M0.00127887 36.5367V4.97673C-0.0294723 3.81617 0.495481 2.41999 1.45374 1.45856C2.41201 0.497123 3.80358 -0.0295705 4.96031 0.00128315C6.11703 -0.0295705 7.5086 0.497123 8.46687 1.45856C9.42513 2.41999 9.95008 3.81617 9.91933 4.97673V29.6405C9.87802 30.5745 10.5741 31.6197 11.45 31.9388C12.2942 32.3346 13.5231 32.0893 14.1521 31.3996L35.8313 9.64859C37.4237 7.96369 40.1341 6.73404 42.8444 6.73404C45.5548 6.73404 48.2652 7.96369 49.8576 9.64859L56.8707 16.6849C57.7104 17.4838 58.3232 18.8434 58.3232 20.2031C58.3232 21.5628 57.7104 22.9224 56.8707 23.7213C56.0745 24.5637 54.7193 25.1785 53.3641 25.1785C52.0089 25.1785 50.6537 24.5637 49.8576 23.7213L44.5977 18.444C44.1996 18.0228 43.522 17.7154 42.8444 17.7154C42.1668 17.7154 41.4893 18.0228 41.0912 18.444L16.8959 42.7194C15.5758 44.0739 13.6523 45.1199 11.6084 45.4822C9.56447 45.8445 7.40018 45.5232 5.6974 44.7045C4.23044 44.0309 2.8158 42.8885 1.79181 41.4383C0.767814 39.988 0.134462 38.2299 0.00127887 36.5367Z" fill="#FF5B00"/>
<path d="M83.6701 20.7567L98.5472 35.6831C99.4561 36.571 100.017 37.9285 99.9996 39.2012C100.017 40.474 99.4561 41.8315 98.5472 42.7194C97.6622 43.6314 96.3091 44.1937 95.0406 44.1767C93.7721 44.1937 92.419 43.6314 91.5341 42.7194L78.4103 29.5522C78.0122 29.1309 77.3346 28.8235 76.657 28.8235C75.9794 28.8235 75.3018 29.1309 74.9037 29.5522L61.7799 42.7194C60.1875 44.4043 57.4771 45.634 54.7668 45.634C52.0564 45.634 49.346 44.4043 47.7536 42.7194L40.7405 35.6831C39.9008 34.8842 39.2881 33.5246 39.2881 32.1649C39.2881 30.8052 39.9008 29.4455 40.7405 28.6467C41.5367 27.8043 42.8919 27.1894 44.2471 27.1894C45.6023 27.1894 46.9575 27.8043 47.7536 28.6467L53.0135 33.924C53.4116 34.3452 54.0892 34.6526 54.7668 34.6526C55.4444 34.6526 56.1219 34.3452 56.52 33.924L69.6438 20.7567C71.2362 19.0718 73.9466 17.8422 76.657 17.8422C79.3673 17.8422 82.0777 19.0718 83.6701 20.7567Z" fill="#FF5B00"/>
</svg>
